%TF.GenerationSoftware,KiCad,Pcbnew,7.0.6*%
%TF.CreationDate,2023-07-11T08:11:05-07:00*%
%TF.ProjectId,Thermo-RTD-8-v1_5,54686572-6d6f-42d5-9254-442d382d7631,rev?*%
%TF.SameCoordinates,Original*%
%TF.FileFunction,Soldermask,Top*%
%TF.FilePolarity,Negative*%
%FSLAX46Y46*%
G04 Gerber Fmt 4.6, Leading zero omitted, Abs format (unit mm)*
G04 Created by KiCad (PCBNEW 7.0.6) date 2023-07-11 08:11:05*
%MOMM*%
%LPD*%
G01*
G04 APERTURE LIST*
G04 Aperture macros list*
%AMRoundRect*
0 Rectangle with rounded corners*
0 $1 Rounding radius*
0 $2 $3 $4 $5 $6 $7 $8 $9 X,Y pos of 4 corners*
0 Add a 4 corners polygon primitive as box body*
4,1,4,$2,$3,$4,$5,$6,$7,$8,$9,$2,$3,0*
0 Add four circle primitives for the rounded corners*
1,1,$1+$1,$2,$3*
1,1,$1+$1,$4,$5*
1,1,$1+$1,$6,$7*
1,1,$1+$1,$8,$9*
0 Add four rect primitives between the rounded corners*
20,1,$1+$1,$2,$3,$4,$5,0*
20,1,$1+$1,$4,$5,$6,$7,0*
20,1,$1+$1,$6,$7,$8,$9,0*
20,1,$1+$1,$8,$9,$2,$3,0*%
G04 Aperture macros list end*
%ADD10RoundRect,0.250000X0.450000X-0.350000X0.450000X0.350000X-0.450000X0.350000X-0.450000X-0.350000X0*%
%ADD11RoundRect,0.250000X-0.337500X-0.475000X0.337500X-0.475000X0.337500X0.475000X-0.337500X0.475000X0*%
%ADD12RoundRect,0.250000X-0.350000X-0.450000X0.350000X-0.450000X0.350000X0.450000X-0.350000X0.450000X0*%
%ADD13RoundRect,0.250000X0.337500X0.475000X-0.337500X0.475000X-0.337500X-0.475000X0.337500X-0.475000X0*%
%ADD14O,1.350000X1.350000*%
%ADD15R,1.350000X1.350000*%
%ADD16R,3.250000X3.250000*%
%ADD17RoundRect,0.075000X-0.075000X-0.337500X0.075000X-0.337500X0.075000X0.337500X-0.075000X0.337500X0*%
%ADD18RoundRect,0.075000X-0.337500X-0.075000X0.337500X-0.075000X0.337500X0.075000X-0.337500X0.075000X0*%
%ADD19RoundRect,0.250000X0.350000X0.450000X-0.350000X0.450000X-0.350000X-0.450000X0.350000X-0.450000X0*%
%ADD20C,2.400000*%
%ADD21R,2.400000X2.400000*%
%ADD22C,3.200000*%
%ADD23RoundRect,0.225000X0.225000X0.375000X-0.225000X0.375000X-0.225000X-0.375000X0.225000X-0.375000X0*%
%ADD24O,1.700000X1.700000*%
%ADD25R,1.700000X1.700000*%
%ADD26RoundRect,0.075000X0.075000X0.337500X-0.075000X0.337500X-0.075000X-0.337500X0.075000X-0.337500X0*%
%ADD27RoundRect,0.075000X0.337500X0.075000X-0.337500X0.075000X-0.337500X-0.075000X0.337500X-0.075000X0*%
%ADD28C,1.600000*%
%ADD29R,1.600000X1.600000*%
%ADD30RoundRect,0.250000X-0.450000X0.350000X-0.450000X-0.350000X0.450000X-0.350000X0.450000X0.350000X0*%
%ADD31C,1.524000*%
%ADD32RoundRect,0.150000X-0.512500X-0.150000X0.512500X-0.150000X0.512500X0.150000X-0.512500X0.150000X0*%
%ADD33C,1.300000*%
%ADD34R,1.300000X1.300000*%
%ADD35RoundRect,0.250000X-0.450000X0.325000X-0.450000X-0.325000X0.450000X-0.325000X0.450000X0.325000X0*%
%ADD36RoundRect,0.250000X-0.475000X0.337500X-0.475000X-0.337500X0.475000X-0.337500X0.475000X0.337500X0*%
%ADD37C,2.500000*%
%ADD38C,1.500000*%
%ADD39RoundRect,0.250500X-0.499500X-0.499500X0.499500X-0.499500X0.499500X0.499500X-0.499500X0.499500X0*%
%ADD40C,3.250000*%
%ADD41R,1.500000X1.500000*%
%ADD42R,4.240000X3.810000*%
G04 APERTURE END LIST*
D10*
%TO.C,R202*%
X54160000Y50977500D03*
X54160000Y48977500D03*
%TD*%
D11*
%TO.C,C502*%
X101537500Y47095000D03*
X99462500Y47095000D03*
%TD*%
D12*
%TO.C,R601*%
X60301200Y24717600D03*
X58301200Y24717600D03*
%TD*%
D13*
%TO.C,C601*%
X58265000Y22584000D03*
X60340000Y22584000D03*
%TD*%
D12*
%TO.C,R901*%
X107865000Y25505000D03*
X105865000Y25505000D03*
%TD*%
D11*
%TO.C,C302*%
X85260000Y47095000D03*
X83185000Y47095000D03*
%TD*%
D14*
%TO.C,JP903*%
X98025000Y13125000D03*
D15*
X96025000Y13125000D03*
%TD*%
D16*
%TO.C,U801*%
X90010000Y18350000D03*
D17*
X88710000Y20787500D03*
X89360000Y20787500D03*
X90010000Y20787500D03*
X90660000Y20787500D03*
X91310000Y20787500D03*
D18*
X92447500Y19650000D03*
X92447500Y19000000D03*
X92447500Y18350000D03*
X92447500Y17700000D03*
X92447500Y17050000D03*
D17*
X91310000Y15912500D03*
X90660000Y15912500D03*
X90010000Y15912500D03*
X89360000Y15912500D03*
X88710000Y15912500D03*
D18*
X87572500Y17050000D03*
X87572500Y17700000D03*
X87572500Y18350000D03*
X87572500Y19000000D03*
X87572500Y19650000D03*
%TD*%
D14*
%TO.C,JP703*%
X66275000Y13125000D03*
D15*
X64275000Y13125000D03*
%TD*%
D11*
%TO.C,C501*%
X97092500Y47095000D03*
X95017500Y47095000D03*
%TD*%
%TO.C,C203*%
X55197500Y56742500D03*
X53122500Y56742500D03*
%TD*%
D14*
%TO.C,JP301*%
X91550000Y53487500D03*
X89550000Y53487500D03*
D15*
X87550000Y53487500D03*
%TD*%
D19*
%TO.C,R501*%
X95535000Y42015000D03*
X97535000Y42015000D03*
%TD*%
D20*
%TO.C,J701*%
X75044000Y7090000D03*
X71544000Y7090000D03*
X68044000Y7090000D03*
D21*
X64544000Y7090000D03*
%TD*%
D20*
%TO.C,J201*%
X48740000Y62716000D03*
X52240000Y62716000D03*
X55740000Y62716000D03*
D21*
X59240000Y62716000D03*
%TD*%
D14*
%TO.C,JP502*%
X96215000Y56742500D03*
D15*
X98215000Y56742500D03*
%TD*%
D14*
%TO.C,JP303*%
X89330000Y56807500D03*
D15*
X91330000Y56807500D03*
%TD*%
D10*
%TO.C,R302*%
X85740000Y51042500D03*
X85740000Y49042500D03*
%TD*%
D22*
%TO.C,H103*%
X112500000Y2500000D03*
%TD*%
D20*
%TO.C,J901*%
X106992000Y7090000D03*
X103492000Y7090000D03*
X99992000Y7090000D03*
D21*
X96492000Y7090000D03*
%TD*%
D22*
%TO.C,H101*%
X2500000Y67500000D03*
%TD*%
D23*
%TO.C,D101*%
X9640000Y47730000D03*
X12940000Y47730000D03*
%TD*%
D20*
%TO.C,J102*%
X17315000Y62385000D03*
X12235000Y62385000D03*
%TD*%
D14*
%TO.C,JP403*%
X73455000Y56807500D03*
D15*
X75455000Y56807500D03*
%TD*%
D14*
%TO.C,JP802*%
X91310000Y13125000D03*
D15*
X89310000Y13125000D03*
%TD*%
D16*
%TO.C,U901*%
X105885000Y18350000D03*
D17*
X104585000Y20787500D03*
X105235000Y20787500D03*
X105885000Y20787500D03*
X106535000Y20787500D03*
X107185000Y20787500D03*
D18*
X108322500Y19650000D03*
X108322500Y19000000D03*
X108322500Y18350000D03*
X108322500Y17700000D03*
X108322500Y17050000D03*
D17*
X107185000Y15912500D03*
X106535000Y15912500D03*
X105885000Y15912500D03*
X105235000Y15912500D03*
X104585000Y15912500D03*
D18*
X103447500Y17050000D03*
X103447500Y17700000D03*
X103447500Y18350000D03*
X103447500Y19000000D03*
X103447500Y19650000D03*
%TD*%
D19*
%TO.C,R301*%
X79490000Y44027500D03*
X81490000Y44027500D03*
%TD*%
D11*
%TO.C,C303*%
X86777500Y56807500D03*
X84702500Y56807500D03*
%TD*%
D13*
%TO.C,C802*%
X85570000Y22838000D03*
X87645000Y22838000D03*
%TD*%
D20*
%TO.C,J301*%
X80434000Y62716000D03*
X83934000Y62716000D03*
X87434000Y62716000D03*
D21*
X90934000Y62716000D03*
%TD*%
D24*
%TO.C,JP101*%
X19540000Y37570000D03*
D25*
X17000000Y37570000D03*
%TD*%
D13*
%TO.C,C703*%
X68827500Y13125000D03*
X70902500Y13125000D03*
%TD*%
D10*
%TO.C,R402*%
X69865000Y51042500D03*
X69865000Y49042500D03*
%TD*%
D20*
%TO.C,J401*%
X64600000Y62716000D03*
X68100000Y62716000D03*
X71600000Y62716000D03*
D21*
X75100000Y62716000D03*
%TD*%
D11*
%TO.C,C402*%
X69385000Y47095000D03*
X67310000Y47095000D03*
%TD*%
D16*
%TO.C,U501*%
X97515000Y51517500D03*
D26*
X98815000Y49080000D03*
X98165000Y49080000D03*
X97515000Y49080000D03*
X96865000Y49080000D03*
X96215000Y49080000D03*
D27*
X95077500Y50217500D03*
X95077500Y50867500D03*
X95077500Y51517500D03*
X95077500Y52167500D03*
X95077500Y52817500D03*
D26*
X96215000Y53955000D03*
X96865000Y53955000D03*
X97515000Y53955000D03*
X98165000Y53955000D03*
X98815000Y53955000D03*
D27*
X99952500Y52817500D03*
X99952500Y52167500D03*
X99952500Y51517500D03*
X99952500Y50867500D03*
X99952500Y50217500D03*
%TD*%
D22*
%TO.C,H102*%
X112500000Y67500000D03*
%TD*%
D14*
%TO.C,JP501*%
X107595000Y53422500D03*
X105595000Y53422500D03*
D15*
X103595000Y53422500D03*
%TD*%
D16*
%TO.C,U601*%
X58260000Y18350000D03*
D17*
X56960000Y20787500D03*
X57610000Y20787500D03*
X58260000Y20787500D03*
X58910000Y20787500D03*
X59560000Y20787500D03*
D18*
X60697500Y19650000D03*
X60697500Y19000000D03*
X60697500Y18350000D03*
X60697500Y17700000D03*
X60697500Y17050000D03*
D17*
X59560000Y15912500D03*
X58910000Y15912500D03*
X58260000Y15912500D03*
X57610000Y15912500D03*
X56960000Y15912500D03*
D18*
X55822500Y17050000D03*
X55822500Y17700000D03*
X55822500Y18350000D03*
X55822500Y19000000D03*
X55822500Y19650000D03*
%TD*%
D14*
%TO.C,JP803*%
X82150000Y13125000D03*
D15*
X80150000Y13125000D03*
%TD*%
D10*
%TO.C,R502*%
X101785000Y51000000D03*
X101785000Y49000000D03*
%TD*%
D28*
%TO.C,C101*%
X12009900Y42015000D03*
D29*
X10009900Y42015000D03*
%TD*%
D30*
%TO.C,R103*%
X44620000Y33268000D03*
X44620000Y35268000D03*
%TD*%
D14*
%TO.C,JP701*%
X64055000Y16445000D03*
X66055000Y16445000D03*
D15*
X68055000Y16445000D03*
%TD*%
D31*
%TO.C,ILI9341TFT101*%
X93515000Y33887000D03*
X90975000Y33887000D03*
X88435000Y33887000D03*
X85895000Y33887000D03*
X83355000Y33887000D03*
X80815000Y33887000D03*
X78275000Y33887000D03*
X78275000Y36427000D03*
X80815000Y36427000D03*
X83355000Y36427000D03*
X85895000Y36427000D03*
X88435000Y36427000D03*
X90975000Y36427000D03*
X93515000Y36427000D03*
%TD*%
D32*
%TO.C,U102*%
X53487500Y35345000D03*
X53487500Y33445000D03*
X51212500Y33445000D03*
X51212500Y34395000D03*
X51212500Y35345000D03*
%TD*%
D33*
%TO.C,MCU101*%
X31920000Y62875000D03*
X34460000Y62875000D03*
X38371600Y48635000D03*
X36371600Y48635000D03*
X34371600Y48635000D03*
X34371600Y50635000D03*
X36371600Y50635000D03*
D34*
X38371600Y50635000D03*
D28*
X28620800Y47145800D03*
X28620800Y49685800D03*
X28620800Y52225800D03*
X28620800Y54765800D03*
D29*
X28620800Y57305800D03*
D28*
X38270000Y17885000D03*
X35730000Y17885000D03*
X33190000Y17885000D03*
X30650000Y17885000D03*
X28110000Y17885000D03*
X38270000Y61065000D03*
X40810000Y63605000D03*
X40810000Y61065000D03*
X40810000Y58525000D03*
X40810000Y55985000D03*
X40810000Y53445000D03*
X40810000Y50905000D03*
X40810000Y48365000D03*
X40810000Y45825000D03*
X40810000Y43285000D03*
X40810000Y40745000D03*
X40810000Y38205000D03*
X40810000Y35665000D03*
X40810000Y33125000D03*
X40810000Y30585000D03*
X40810000Y28045000D03*
X40810000Y25505000D03*
X40810000Y22965000D03*
X40810000Y20425000D03*
X40810000Y17885000D03*
X40810000Y15345000D03*
X40810000Y12805000D03*
X40810000Y10265000D03*
X40810000Y7725000D03*
X40810000Y5185000D03*
X25570000Y5185000D03*
X25570000Y7725000D03*
X25570000Y10265000D03*
X25570000Y12805000D03*
X25570000Y15345000D03*
X25570000Y17885000D03*
X25570000Y20425000D03*
X25570000Y22965000D03*
X25570000Y25505000D03*
X25570000Y28045000D03*
X25570000Y30585000D03*
X25570000Y33125000D03*
X25570000Y35665000D03*
X25570000Y38205000D03*
X25570000Y40745000D03*
X25570000Y43285000D03*
X25570000Y45825000D03*
X25570000Y48365000D03*
X25570000Y50905000D03*
X25570000Y53445000D03*
X25570000Y55985000D03*
X25570000Y58525000D03*
X25570000Y61065000D03*
D29*
X25570000Y63605000D03*
%TD*%
D16*
%TO.C,U701*%
X74135000Y18350000D03*
D17*
X72835000Y20787500D03*
X73485000Y20787500D03*
X74135000Y20787500D03*
X74785000Y20787500D03*
X75435000Y20787500D03*
D18*
X76572500Y19650000D03*
X76572500Y19000000D03*
X76572500Y18350000D03*
X76572500Y17700000D03*
X76572500Y17050000D03*
D17*
X75435000Y15912500D03*
X74785000Y15912500D03*
X74135000Y15912500D03*
X73485000Y15912500D03*
X72835000Y15912500D03*
D18*
X71697500Y17050000D03*
X71697500Y17700000D03*
X71697500Y18350000D03*
X71697500Y19000000D03*
X71697500Y19650000D03*
%TD*%
D13*
%TO.C,C702*%
X69998500Y22838000D03*
X72073500Y22838000D03*
%TD*%
D11*
%TO.C,C301*%
X81465000Y47095000D03*
X79390000Y47095000D03*
%TD*%
D13*
%TO.C,C701*%
X74140000Y22584000D03*
X76215000Y22584000D03*
%TD*%
D30*
%TO.C,R802*%
X85740000Y18890000D03*
X85740000Y20890000D03*
%TD*%
D12*
%TO.C,R701*%
X76176200Y24743000D03*
X74176200Y24743000D03*
%TD*%
D13*
%TO.C,C603*%
X52952500Y13125000D03*
X55027500Y13125000D03*
%TD*%
%TO.C,C903*%
X100577500Y13125000D03*
X102652500Y13125000D03*
%TD*%
D11*
%TO.C,C403*%
X70902500Y56807500D03*
X68827500Y56807500D03*
%TD*%
D16*
%TO.C,U401*%
X65595000Y51582500D03*
D26*
X66895000Y49145000D03*
X66245000Y49145000D03*
X65595000Y49145000D03*
X64945000Y49145000D03*
X64295000Y49145000D03*
D27*
X63157500Y50282500D03*
X63157500Y50932500D03*
X63157500Y51582500D03*
X63157500Y52232500D03*
X63157500Y52882500D03*
D26*
X64295000Y54020000D03*
X64945000Y54020000D03*
X65595000Y54020000D03*
X66245000Y54020000D03*
X66895000Y54020000D03*
D27*
X68032500Y52882500D03*
X68032500Y52232500D03*
X68032500Y51582500D03*
X68032500Y50932500D03*
X68032500Y50282500D03*
%TD*%
D11*
%TO.C,C103*%
X8065500Y24870000D03*
X5990500Y24870000D03*
%TD*%
D14*
%TO.C,JP202*%
X48590000Y56742500D03*
D15*
X50590000Y56742500D03*
%TD*%
D13*
%TO.C,C901*%
X105890000Y22584000D03*
X107965000Y22584000D03*
%TD*%
D35*
%TO.C,D102*%
X5885000Y32100000D03*
X5885000Y34150000D03*
%TD*%
D14*
%TO.C,JP401*%
X75675000Y53487500D03*
X73675000Y53487500D03*
D15*
X71675000Y53487500D03*
%TD*%
D14*
%TO.C,JP503*%
X105375000Y56742500D03*
D15*
X107375000Y56742500D03*
%TD*%
D16*
%TO.C,U201*%
X49890000Y51517500D03*
D26*
X51190000Y49080000D03*
X50540000Y49080000D03*
X49890000Y49080000D03*
X49240000Y49080000D03*
X48590000Y49080000D03*
D27*
X47452500Y50217500D03*
X47452500Y50867500D03*
X47452500Y51517500D03*
X47452500Y52167500D03*
X47452500Y52817500D03*
D26*
X48590000Y53955000D03*
X49240000Y53955000D03*
X49890000Y53955000D03*
X50540000Y53955000D03*
X51190000Y53955000D03*
D27*
X52327500Y52817500D03*
X52327500Y52167500D03*
X52327500Y51517500D03*
X52327500Y50867500D03*
X52327500Y50217500D03*
%TD*%
D14*
%TO.C,JP402*%
X64295000Y56807500D03*
D15*
X66295000Y56807500D03*
%TD*%
D14*
%TO.C,JP302*%
X80170000Y56807500D03*
D15*
X82170000Y56807500D03*
%TD*%
D10*
%TO.C,R102*%
X5885000Y29680000D03*
X5885000Y27680000D03*
%TD*%
D14*
%TO.C,JP702*%
X75435000Y13125000D03*
D15*
X73435000Y13125000D03*
%TD*%
D20*
%TO.C,J601*%
X59169000Y7090000D03*
X55669000Y7090000D03*
X52169000Y7090000D03*
D21*
X48669000Y7090000D03*
%TD*%
D14*
%TO.C,JP902*%
X107185000Y13125000D03*
D15*
X105185000Y13125000D03*
%TD*%
D20*
%TO.C,J801*%
X90990000Y7090000D03*
X87490000Y7090000D03*
X83990000Y7090000D03*
D21*
X80490000Y7090000D03*
%TD*%
D10*
%TO.C,R101*%
X29176800Y35572800D03*
X29176800Y33572800D03*
%TD*%
D36*
%TO.C,C104*%
X48540000Y33357500D03*
X48540000Y35432500D03*
%TD*%
D11*
%TO.C,C503*%
X102822500Y56742500D03*
X100747500Y56742500D03*
%TD*%
D14*
%TO.C,JP603*%
X50400000Y13125000D03*
D15*
X48400000Y13125000D03*
%TD*%
D37*
%TO.C,Teensy_Ethernet101*%
X22015000Y15320000D03*
X6265000Y15320000D03*
D38*
X20465000Y8890000D03*
X17925000Y7190000D03*
X10355000Y8890000D03*
X7815000Y7190000D03*
X18585000Y21160000D03*
X17315000Y18620000D03*
X16045000Y21160000D03*
X14775000Y18620000D03*
X13505000Y21160000D03*
X12235000Y18620000D03*
X10965000Y21160000D03*
D39*
X9695000Y18620000D03*
D40*
X19855000Y12270000D03*
X8425000Y12270000D03*
%TD*%
D36*
%TO.C,C105*%
X56160000Y33357500D03*
X56160000Y35432500D03*
%TD*%
D20*
%TO.C,J501*%
X96266000Y62716000D03*
X99766000Y62716000D03*
X103266000Y62716000D03*
D21*
X106766000Y62716000D03*
%TD*%
D13*
%TO.C,C602*%
X54051200Y22812600D03*
X56126200Y22812600D03*
%TD*%
D14*
%TO.C,JP602*%
X59560000Y13125000D03*
D15*
X57560000Y13125000D03*
%TD*%
D11*
%TO.C,C401*%
X65590000Y47095000D03*
X63515000Y47095000D03*
%TD*%
D14*
%TO.C,JP901*%
X95805000Y16445000D03*
X97805000Y16445000D03*
D15*
X99805000Y16445000D03*
%TD*%
D14*
%TO.C,JP801*%
X79930000Y16445000D03*
X81930000Y16445000D03*
D15*
X83930000Y16445000D03*
%TD*%
D19*
%TO.C,R201*%
X54304000Y44555000D03*
X56304000Y44555000D03*
%TD*%
D38*
%TO.C,U101*%
X18275000Y33280000D03*
X15735000Y33280000D03*
D41*
X13195000Y33280000D03*
%TD*%
D11*
%TO.C,C202*%
X53912500Y47095000D03*
X51837500Y47095000D03*
%TD*%
D14*
%TO.C,JP201*%
X59970000Y53422500D03*
X57970000Y53422500D03*
D15*
X55970000Y53422500D03*
%TD*%
D11*
%TO.C,C201*%
X49885000Y47095000D03*
X47810000Y47095000D03*
%TD*%
D13*
%TO.C,C803*%
X84702500Y13125000D03*
X86777500Y13125000D03*
%TD*%
D22*
%TO.C,H104*%
X2500000Y2500000D03*
%TD*%
D30*
%TO.C,R702*%
X69865000Y18890000D03*
X69865000Y20890000D03*
%TD*%
D28*
%TO.C,C102*%
X19319900Y45190000D03*
D29*
X17319900Y45190000D03*
%TD*%
D13*
%TO.C,C801*%
X90015000Y22584000D03*
X92090000Y22584000D03*
%TD*%
D16*
%TO.C,U301*%
X81470000Y51582500D03*
D26*
X82770000Y49145000D03*
X82120000Y49145000D03*
X81470000Y49145000D03*
X80820000Y49145000D03*
X80170000Y49145000D03*
D27*
X79032500Y50282500D03*
X79032500Y50932500D03*
X79032500Y51582500D03*
X79032500Y52232500D03*
X79032500Y52882500D03*
D26*
X80170000Y54020000D03*
X80820000Y54020000D03*
X81470000Y54020000D03*
X82120000Y54020000D03*
X82770000Y54020000D03*
D27*
X83907500Y52882500D03*
X83907500Y52232500D03*
X83907500Y51582500D03*
X83907500Y50932500D03*
X83907500Y50282500D03*
%TD*%
D30*
%TO.C,R602*%
X53990000Y18890000D03*
X53990000Y20890000D03*
%TD*%
D13*
%TO.C,C902*%
X101770000Y22965000D03*
X103845000Y22965000D03*
%TD*%
D30*
%TO.C,R801*%
X94150000Y19298000D03*
X94150000Y21298000D03*
%TD*%
D14*
%TO.C,JP203*%
X57750000Y56742500D03*
D15*
X59750000Y56742500D03*
%TD*%
D42*
%TO.C,F101*%
X17965000Y52175000D03*
X10965000Y52175000D03*
%TD*%
D24*
%TO.C,J101*%
X5975000Y47320000D03*
X5975000Y44780000D03*
X5975000Y42240000D03*
D25*
X5975000Y39700000D03*
%TD*%
D30*
%TO.C,R902*%
X101615000Y18890000D03*
X101615000Y20890000D03*
%TD*%
D12*
%TO.C,R401*%
X59590000Y47095000D03*
X57590000Y47095000D03*
%TD*%
D14*
%TO.C,JP601*%
X48180000Y16445000D03*
X50180000Y16445000D03*
D15*
X52180000Y16445000D03*
%TD*%
M02*
