M48
; DRILL file {KiCad 7.0.6} date Tue Jul 11 08:11:05 2023
; FORMAT={-:-/ absolute / inch / decimal}
; #@! TF.CreationDate,2023-07-11T08:11:05-07:00
; #@! TF.GenerationSoftware,Kicad,Pcbnew,7.0.6
; #@! TF.FileFunction,Plated,1,2,PTH
FMAT,2
INCH
; #@! TA.AperFunction,Plated,PTH,ViaDrill
T1C0.0157
; #@! TA.AperFunction,Plated,PTH,ViaDrill
T2C0.0315
; #@! TA.AperFunction,Plated,PTH,ComponentDrill
T3C0.0315
; #@! TA.AperFunction,Plated,PTH,ComponentDrill
T4C0.0354
; #@! TA.AperFunction,Plated,PTH,ComponentDrill
T5C0.0394
; #@! TA.AperFunction,Plated,PTH,ComponentDrill
T6C0.0400
; #@! TA.AperFunction,Plated,PTH,ComponentDrill
T7C0.0402
; #@! TA.AperFunction,Plated,PTH,ComponentDrill
T8C0.0433
; #@! TA.AperFunction,Plated,PTH,ComponentDrill
T9C0.0472
; #@! TA.AperFunction,Plated,PTH,ComponentDrill
T10C0.0630
%
G90
G05
T1
X0.1725Y2.5597
X0.1725Y2.4597
X0.1725Y2.3597
X0.1725Y2.2597
X0.1725Y2.1597
X0.1725Y2.0597
X0.1725Y1.9597
X0.1725Y1.4597
X0.1725Y1.3597
X0.1725Y1.2597
X0.1725Y1.1597
X0.1725Y1.0597
X0.1725Y0.9597
X0.1725Y0.8597
X0.1725Y0.7597
X0.1725Y0.6597
X0.1725Y0.5597
X0.1725Y0.4597
X0.1725Y0.3597
X0.1725Y0.2597
X0.2352Y1.4705
X0.2725Y2.6597
X0.2725Y2.5597
X0.2725Y2.4597
X0.2725Y2.3597
X0.2725Y2.2597
X0.2725Y2.1597
X0.2725Y2.0597
X0.2725Y1.9597
X0.2725Y0.7597
X0.2725Y0.3597
X0.2725Y0.1597
X0.2725Y0.0597
X0.3067Y0.8291
X0.3725Y2.6597
X0.3725Y2.5597
X0.3725Y2.4597
X0.3725Y2.3597
X0.3725Y2.2597
X0.3725Y2.1597
X0.3725Y1.3597
X0.3725Y1.2597
X0.3725Y1.1597
X0.3725Y0.2597
X0.3725Y0.1597
X0.3725Y0.0597
X0.4567Y0.9791
X0.4725Y2.6597
X0.4725Y2.5597
X0.4725Y2.1597
X0.4725Y0.3597
X0.4725Y0.2597
X0.4725Y0.1597
X0.4725Y0.0597
X0.5567Y1.1541
X0.5725Y2.6597
X0.5725Y2.5597
X0.5725Y2.4597
X0.5725Y2.3597
X0.5725Y2.0597
X0.5725Y1.9597
X0.5725Y1.8597
X0.5725Y1.7597
X0.5725Y1.5597
X0.5725Y1.4597
X0.5725Y0.4597
X0.5725Y0.3597
X0.5725Y0.2597
X0.5725Y0.1597
X0.5725Y0.0597
X0.6067Y1.1541
X0.6367Y1.1891
X0.6725Y2.6597
X0.6725Y2.5597
X0.6725Y2.3597
X0.6725Y2.2597
X0.6725Y1.2597
X0.6725Y0.9597
X0.6725Y0.6597
X0.6725Y0.4597
X0.6725Y0.3597
X0.6725Y0.1597
X0.6725Y0.0597
X0.7725Y2.6597
X0.7725Y2.5597
X0.7725Y2.2597
X0.7725Y2.1597
X0.7725Y0.2597
X0.7725Y0.1597
X0.7725Y0.0597
X0.7817Y0.7447
X0.8725Y1.7597
X0.8725Y1.6597
X0.8725Y1.0597
X0.8725Y0.9597
X0.8725Y0.7597
X0.8725Y0.3597
X0.8725Y0.2597
X0.8725Y0.1597
X0.8725Y0.0597
X0.9725Y0.0597
X1.0725Y2.5597
X1.0725Y2.4597
X1.0725Y2.3597
X1.0725Y1.2597
X1.0725Y1.0597
X1.0725Y0.9597
X1.0725Y0.8597
X1.0725Y0.5597
X1.0725Y0.3597
X1.0725Y0.2597
X1.0725Y0.1597
X1.0725Y0.0597
X1.0827Y1.3591
X1.1725Y2.5597
X1.1725Y2.4597
X1.1725Y2.3597
X1.1725Y1.5597
X1.1725Y1.4597
X1.1725Y1.2597
X1.1725Y1.1597
X1.1725Y0.9597
X1.1725Y0.8597
X1.1725Y0.5597
X1.1725Y0.4597
X1.1725Y0.2597
X1.1725Y0.1597
X1.1725Y0.0597
X1.2725Y2.5597
X1.2725Y2.3597
X1.2725Y2.2597
X1.2725Y2.1597
X1.2725Y2.0597
X1.2725Y1.6597
X1.2725Y1.5597
X1.2725Y1.4597
X1.2725Y1.3597
X1.2725Y1.2597
X1.2725Y1.1597
X1.2725Y1.0597
X1.2725Y0.8597
X1.2725Y0.5597
X1.2725Y0.4597
X1.2725Y0.3597
X1.2725Y0.1597
X1.2725Y0.0597
X1.3725Y2.5597
X1.3725Y2.3597
X1.3725Y2.2597
X1.3725Y2.1597
X1.3725Y1.7597
X1.3725Y1.6597
X1.3725Y1.5597
X1.3725Y1.4597
X1.3725Y1.3597
X1.3725Y1.2597
X1.3725Y1.1597
X1.3725Y1.0597
X1.3725Y0.9597
X1.3725Y0.5597
X1.3725Y0.4597
X1.3725Y0.3597
X1.3725Y0.1597
X1.3725Y0.0597
X1.4725Y2.2597
X1.4725Y2.1597
X1.4725Y2.0597
X1.4725Y1.7597
X1.4725Y1.6597
X1.4725Y1.5597
X1.4725Y1.4597
X1.4725Y1.3597
X1.4725Y1.2597
X1.4725Y1.1597
X1.4725Y1.0597
X1.4725Y0.9597
X1.4725Y0.8597
X1.4725Y0.3597
X1.4725Y0.1597
X1.4725Y0.0597
X1.5067Y0.5041
X1.5725Y2.6597
X1.5725Y0.0597
X1.6725Y2.6597
X1.6725Y2.5597
X1.6725Y0.1597
X1.6725Y0.0597
X1.7167Y1.783
X1.7267Y0.8131
X1.7317Y0.2541
X1.7725Y2.6597
X1.7725Y2.5597
X1.7725Y2.4597
X1.7725Y2.3597
X1.7725Y2.2597
X1.7725Y0.9597
X1.7725Y0.6597
X1.7725Y0.4597
X1.7725Y0.1597
X1.7725Y0.0597
X1.7869Y1.6484
X1.7987Y1.9591
X1.8027Y1.9091
X1.8369Y1.6177
X1.8682Y2.1041
X1.8725Y2.6597
X1.8725Y2.5597
X1.8725Y2.3597
X1.8725Y1.0597
X1.8725Y0.7597
X1.8725Y0.1597
X1.8725Y0.0597
X1.8823Y1.9358
X1.9067Y1.7891
X1.911Y1.2591
X1.9467Y1.7391
X1.964Y1.8911
X1.9642Y2.0282
X1.9725Y2.6597
X1.9725Y2.5597
X1.9725Y2.3597
X1.9725Y1.6597
X1.9725Y1.5597
X1.9725Y1.4597
X1.9725Y1.2597
X1.9725Y0.8597
X1.9725Y0.3597
X1.9725Y0.1597
X1.9725Y0.0597
X1.9967Y1.7391
X2.0482Y0.8071
X2.0614Y1.9284
X2.0725Y2.6597
X2.0725Y2.5597
X2.0725Y1.4597
X2.0725Y1.2597
X2.0725Y0.9597
X2.0725Y0.1597
X2.0725Y0.0597
X2.0817Y1.7391
X2.1125Y1.5355
X2.1167Y2.0991
X2.1607Y1.0851
X2.1725Y2.6597
X2.1725Y2.5597
X2.1725Y1.6597
X2.1725Y1.5597
X2.1725Y0.1597
X2.1725Y0.0597
X2.1767Y1.8041
X2.2102Y1.2761
X2.2467Y1.0777
X2.2467Y0.9852
X2.2581Y1.2171
X2.2725Y2.6597
X2.2725Y2.5597
X2.2725Y2.3597
X2.2725Y1.9597
X2.2725Y1.4597
X2.2725Y0.4597
X2.2725Y0.3597
X2.2725Y0.1597
X2.2725Y0.0597
X2.2929Y0.7216
X2.2959Y1.5531
X2.3067Y0.8791
X2.3102Y1.7791
X2.3111Y1.6491
X2.3117Y1.6991
X2.3367Y1.0831
X2.3567Y1.6491
X2.3622Y1.5921
X2.3725Y2.6597
X2.3725Y2.5597
X2.3725Y1.4597
X2.3725Y1.3597
X2.3725Y1.2597
X2.3725Y0.1597
X2.3725Y0.0597
X2.4409Y1.6732
X2.446Y0.7295
X2.4567Y1.0691
X2.4567Y0.6041
X2.4725Y2.6597
X2.4725Y2.5597
X2.4725Y2.3597
X2.4725Y2.2597
X2.4725Y1.5597
X2.4725Y1.4597
X2.4725Y1.3597
X2.4725Y0.4597
X2.4725Y0.3597
X2.4725Y0.1597
X2.4725Y0.0597
X2.4727Y1.2691
X2.4767Y0.7691
X2.4838Y2.1313
X2.5069Y1.179
X2.5267Y0.9191
X2.5591Y1.6732
X2.5725Y2.6597
X2.5725Y2.5597
X2.5725Y1.5597
X2.5725Y1.4597
X2.5725Y0.1597
X2.5725Y0.0597
X2.5823Y2.0291
X2.5867Y0.9191
X2.5927Y1.1951
X2.6067Y1.0691
X2.6067Y0.7591
X2.6081Y1.9041
X2.6543Y1.787
X2.6725Y2.6597
X2.6725Y2.5597
X2.6725Y1.5597
X2.6725Y1.2597
X2.6725Y0.7597
X2.6725Y0.1597
X2.6725Y0.0597
X2.6772Y1.6732
X2.7067Y0.8991
X2.7467Y1.0691
X2.7527Y1.1951
X2.7725Y2.6597
X2.7725Y2.5597
X2.7725Y2.3597
X2.7725Y1.5597
X2.7725Y1.3597
X2.7725Y1.2597
X2.7725Y0.4597
X2.7725Y0.3597
X2.7725Y0.1597
X2.7725Y0.0597
X2.8256Y0.9852
X2.8312Y1.1846
X2.8312Y1.0756
X2.8346Y1.6732
X2.8707Y1.5671
X2.8725Y2.6597
X2.8725Y2.5597
X2.8725Y2.3597
X2.8725Y1.9597
X2.8725Y1.3597
X2.8725Y0.3597
X2.8725Y0.1597
X2.8725Y0.0597
X2.9067Y1.4991
X2.9134Y1.8307
X2.9195Y0.72
X2.9467Y0.8891
X2.9487Y1.1991
X2.9528Y1.6732
X2.9567Y1.4706
X2.9725Y2.6597
X2.9725Y2.5597
X2.9725Y1.5597
X2.9725Y1.3597
X2.9725Y0.1597
X2.9725Y0.0597
X3.0087Y1.2071
X3.0315Y1.9488
X3.0315Y1.7913
X3.0317Y0.6291
X3.0577Y0.659
X3.0725Y2.6597
X3.0725Y2.5597
X3.0725Y2.4597
X3.0725Y2.3597
X3.0725Y2.2597
X3.0725Y1.5597
X3.0725Y0.4597
X3.0725Y0.3597
X3.0725Y0.2597
X3.0725Y0.1597
X3.0725Y0.0597
X3.0817Y1.0791
X3.0867Y0.9391
X3.09Y0.7869
X3.1067Y2.1291
X3.1256Y1.9223
X3.1267Y1.0791
X3.1367Y1.2091
X3.1725Y2.6597
X3.1725Y2.5597
X3.1725Y1.5597
X3.1725Y0.7597
X3.1725Y0.1597
X3.1725Y0.0597
X3.2075Y2.0308
X3.2331Y1.9041
X3.2725Y2.6597
X3.2725Y2.5597
X3.2725Y1.0597
X3.2725Y0.7597
X3.2725Y0.1597
X3.2725Y0.0597
X3.2867Y1.2451
X3.3265Y1.7593
X3.3725Y2.6597
X3.3725Y2.5597
X3.3725Y2.3597
X3.3725Y1.5597
X3.3725Y1.0597
X3.3725Y0.4597
X3.3725Y0.3597
X3.3725Y0.1597
X3.3725Y0.0597
X3.4267Y1.2091
X3.4447Y1.7051
X3.4586Y0.9672
X3.4725Y2.6597
X3.4725Y2.5597
X3.4725Y1.9597
X3.4725Y1.6597
X3.4725Y1.5597
X3.4725Y1.0597
X3.4725Y0.1597
X3.5317Y1.4096
X3.5445Y0.72
X3.5647Y1.8311
X3.5702Y1.1581
X3.5725Y2.6597
X3.5725Y2.5597
X3.5725Y1.6597
X3.5725Y1.5597
X3.5725Y1.0597
X3.5725Y0.9597
X3.5725Y0.1597
X3.5767Y0.8891
X3.6147Y1.7091
X3.6281Y0.6292
X3.6317Y1.8791
X3.6674Y0.6006
X3.6725Y2.6597
X3.6725Y2.5597
X3.6725Y2.4597
X3.6725Y2.3597
X3.6725Y2.2597
X3.6725Y1.2597
X3.6725Y0.4597
X3.6725Y0.3597
X3.6725Y0.2597
X3.6725Y0.1597
X3.697Y0.5444
X3.7267Y1.0446
X3.7267Y0.9737
X3.7317Y2.1541
X3.7409Y1.9223
X3.7567Y1.7541
X3.7725Y2.6597
X3.7725Y2.5597
X3.7725Y1.5597
X3.7725Y1.3597
X3.7725Y1.2597
X3.7725Y0.7597
X3.7725Y0.1597
X3.8307Y1.1891
X3.8392Y2.0282
X3.8607Y1.8832
X3.8725Y2.6597
X3.8725Y2.5597
X3.8725Y2.3597
X3.8725Y1.5597
X3.8725Y1.4597
X3.8725Y1.3597
X3.8725Y1.2597
X3.8725Y1.0597
X3.8725Y0.8597
X3.8725Y0.7597
X3.8725Y0.3597
X3.8725Y0.1597
X3.9247Y1.7311
X3.9387Y1.5811
X3.9547Y1.3351
X3.9547Y1.1951
X3.9725Y2.6597
X3.9725Y2.5597
X3.9725Y1.2597
X3.9725Y1.0597
X3.9725Y0.4597
X3.9725Y0.3597
X3.9725Y0.1597
X3.9867Y2.0991
X3.9987Y1.7881
X4.0067Y0.8791
X4.0167Y0.6491
X4.0317Y1.8541
X4.0725Y2.6597
X4.0725Y2.5597
X4.0725Y1.9597
X4.0725Y1.7597
X4.0725Y1.6597
X4.0725Y1.5597
X4.0725Y1.4597
X4.0725Y0.1597
X4.1687Y0.7224
X4.1725Y2.6597
X4.1725Y2.5597
X4.1725Y2.3597
X4.1725Y2.1597
X4.1725Y1.9597
X4.1725Y1.8597
X4.1725Y1.7597
X4.1725Y1.6597
X4.1725Y1.5597
X4.1725Y1.4597
X4.1725Y1.3597
X4.1725Y0.1597
X4.1798Y0.9541
X4.1826Y1.0914
X4.2504Y0.8175
X4.2725Y2.6597
X4.2725Y2.5597
X4.2725Y2.3597
X4.2725Y2.1597
X4.2725Y1.9597
X4.2725Y1.8597
X4.2725Y1.7597
X4.2725Y1.6597
X4.2725Y1.5597
X4.2725Y1.4597
X4.2725Y1.3597
X4.2725Y1.2597
X4.2725Y1.1597
X4.2725Y0.5597
X4.2725Y0.4597
X4.2725Y0.3597
X4.2725Y0.1597
X4.3267Y0.6991
X4.3397Y0.7363
X4.3725Y2.5597
X4.3725Y2.4597
X4.3725Y2.3597
X4.3725Y2.2597
X4.3725Y2.1597
X4.3725Y2.0597
X4.3725Y1.9597
X4.3725Y1.8597
X4.3725Y1.7597
X4.3725Y1.6597
X4.3725Y1.5597
X4.3725Y1.4597
X4.3725Y1.3597
X4.3725Y1.2597
X4.3725Y1.1597
X4.3725Y1.0597
X4.3725Y0.9597
X4.3725Y0.8597
X4.3725Y0.5597
X4.3725Y0.4597
X4.3725Y0.3597
X4.3725Y0.2597
T2
X1.6967Y2.0791
X1.8851Y1.5427
T3
X0.3941Y1.6541
X0.4728Y1.6541
X0.6819Y1.7791
X0.7606Y1.7791
X1.2567Y2.4754
X1.3532Y1.9935
X1.3532Y1.9148
X1.3567Y2.4754
X1.432Y1.9935
X1.432Y1.9148
X1.5107Y1.9935
X1.5107Y1.9148
X1.8969Y0.6474
X1.9055Y0.5167
X1.913Y2.234
X1.9756Y0.6474
X1.9843Y0.5167
X1.9917Y2.234
X2.0543Y0.6474
X2.2035Y2.1032
X2.2661Y0.5167
X2.2736Y2.234
X2.2823Y2.1032
X2.3449Y0.5167
X2.3524Y2.234
X2.361Y2.1032
X2.5219Y0.6474
X2.5305Y0.5167
X2.5313Y2.2365
X2.6006Y0.6474
X2.6093Y0.5167
X2.61Y2.2365
X2.6793Y0.6474
X2.8219Y2.1058
X2.8911Y0.5167
X2.8919Y2.2365
X2.9006Y2.1058
X2.9699Y0.5167
X2.9707Y2.2365
X2.9793Y2.1058
X3.1469Y0.6474
X3.1555Y0.5167
X3.1563Y2.2365
X3.2256Y0.6474
X3.2343Y0.5167
X3.235Y2.2365
X3.3043Y0.6474
X3.4469Y2.1058
X3.5161Y0.5167
X3.5169Y2.2365
X3.5256Y2.1058
X3.5949Y0.5167
X3.5957Y2.2365
X3.6043Y2.1058
X3.7719Y0.6474
X3.7805Y0.5167
X3.788Y2.234
X3.8506Y0.6474
X3.8593Y0.5167
X3.8667Y2.234
X3.9293Y0.6474
X4.0785Y2.1032
X4.1411Y0.5167
X4.1486Y2.234
X4.1573Y2.1032
X4.2199Y0.5167
X4.2274Y2.234
X4.236Y2.1032
T4
X0.3817Y0.7331
X0.4317Y0.8331
X0.4817Y0.7331
X0.5317Y0.8331
X0.5817Y0.7331
X0.6317Y0.8331
X0.6817Y0.7331
X0.7317Y0.8331
T5
X0.2352Y1.863
X0.2352Y1.763
X0.2352Y1.663
X0.2352Y1.563
X0.5195Y1.3102
X0.6195Y1.3102
X0.6693Y1.4791
X0.7195Y1.3102
X0.7693Y1.4791
T6
X3.0817Y1.4341
X3.0817Y1.3341
X3.1817Y1.4341
X3.1817Y1.3341
X3.2817Y1.4341
X3.2817Y1.3341
X3.3817Y1.4341
X3.3817Y1.3341
X3.4817Y1.4341
X3.4817Y1.3341
X3.5817Y1.4341
X3.5817Y1.3341
X3.6817Y1.4341
X3.6817Y1.3341
T7
X0.3077Y0.2831
X0.4077Y0.35
X0.7057Y0.2831
X0.8057Y0.35
T8
X1.0067Y2.5041
X1.0067Y2.4041
X1.0067Y2.3041
X1.0067Y2.2041
X1.0067Y2.1041
X1.0067Y2.0041
X1.0067Y1.9041
X1.0067Y1.8041
X1.0067Y1.7041
X1.0067Y1.6041
X1.0067Y1.5041
X1.0067Y1.4041
X1.0067Y1.3041
X1.0067Y1.2041
X1.0067Y1.1041
X1.0067Y1.0041
X1.0067Y0.9041
X1.0067Y0.8041
X1.0067Y0.7041
X1.0067Y0.6041
X1.0067Y0.5041
X1.0067Y0.4041
X1.0067Y0.3041
X1.0067Y0.2041
X1.1067Y0.7041
X1.1268Y2.2561
X1.1268Y2.1561
X1.1268Y2.0561
X1.1268Y1.9561
X1.1268Y1.8561
X1.2067Y0.7041
X1.3067Y0.7041
X1.4067Y0.7041
X1.5067Y2.4041
X1.5067Y0.7041
X1.6067Y2.5041
X1.6067Y2.4041
X1.6067Y2.3041
X1.6067Y2.2041
X1.6067Y2.1041
X1.6067Y2.0041
X1.6067Y1.9041
X1.6067Y1.8041
X1.6067Y1.7041
X1.6067Y1.6041
X1.6067Y1.5041
X1.6067Y1.4041
X1.6067Y1.3041
X1.6067Y1.2041
X1.6067Y1.1041
X1.6067Y1.0041
X1.6067Y0.9041
X1.6067Y0.8041
X1.6067Y0.7041
X1.6067Y0.6041
X1.6067Y0.5041
X1.6067Y0.4041
X1.6067Y0.3041
X1.6067Y0.2041
T9
X1.9161Y0.2791
X1.9189Y2.4691
X2.0539Y0.2791
X2.0567Y2.4691
X2.1917Y0.2791
X2.1945Y2.4691
X2.3295Y0.2791
X2.3323Y2.4691
X2.5411Y0.2791
X2.5433Y2.4691
X2.6789Y0.2791
X2.6811Y2.4691
X2.8167Y0.2791
X2.8189Y2.4691
X2.9545Y0.2791
X2.9567Y2.4691
X3.1667Y2.4691
X3.1689Y0.2791
X3.3045Y2.4691
X3.3067Y0.2791
X3.4423Y2.4691
X3.4445Y0.2791
X3.5801Y2.4691
X3.5823Y0.2791
X3.79Y2.4691
X3.7989Y0.2791
X3.9278Y2.4691
X3.9367Y0.2791
X4.0656Y2.4691
X4.0745Y0.2791
X4.2034Y2.4691
X4.2123Y0.2791
T10
X0.2467Y0.6031
X0.4817Y2.4561
X0.6817Y2.4561
X0.8667Y0.6031
T0
M30
