%TF.GenerationSoftware,KiCad,Pcbnew,7.0.6*%
%TF.CreationDate,2023-07-11T08:11:05-07:00*%
%TF.ProjectId,Thermo-RTD-8-v1_5,54686572-6d6f-42d5-9254-442d382d7631,rev?*%
%TF.SameCoordinates,Original*%
%TF.FileFunction,Soldermask,Bot*%
%TF.FilePolarity,Negative*%
%FSLAX46Y46*%
G04 Gerber Fmt 4.6, Leading zero omitted, Abs format (unit mm)*
G04 Created by KiCad (PCBNEW 7.0.6) date 2023-07-11 08:11:05*
%MOMM*%
%LPD*%
G01*
G04 APERTURE LIST*
G04 Aperture macros list*
%AMRoundRect*
0 Rectangle with rounded corners*
0 $1 Rounding radius*
0 $2 $3 $4 $5 $6 $7 $8 $9 X,Y pos of 4 corners*
0 Add a 4 corners polygon primitive as box body*
4,1,4,$2,$3,$4,$5,$6,$7,$8,$9,$2,$3,0*
0 Add four circle primitives for the rounded corners*
1,1,$1+$1,$2,$3*
1,1,$1+$1,$4,$5*
1,1,$1+$1,$6,$7*
1,1,$1+$1,$8,$9*
0 Add four rect primitives between the rounded corners*
20,1,$1+$1,$2,$3,$4,$5,0*
20,1,$1+$1,$4,$5,$6,$7,0*
20,1,$1+$1,$6,$7,$8,$9,0*
20,1,$1+$1,$8,$9,$2,$3,0*%
G04 Aperture macros list end*
%ADD10O,1.350000X1.350000*%
%ADD11R,1.350000X1.350000*%
%ADD12C,2.400000*%
%ADD13R,2.400000X2.400000*%
%ADD14C,3.200000*%
%ADD15O,1.700000X1.700000*%
%ADD16R,1.700000X1.700000*%
%ADD17C,1.600000*%
%ADD18R,1.600000X1.600000*%
%ADD19C,1.524000*%
%ADD20C,1.300000*%
%ADD21R,1.300000X1.300000*%
%ADD22C,2.500000*%
%ADD23C,1.500000*%
%ADD24RoundRect,0.250500X-0.499500X-0.499500X0.499500X-0.499500X0.499500X0.499500X-0.499500X0.499500X0*%
%ADD25C,3.250000*%
%ADD26R,1.500000X1.500000*%
G04 APERTURE END LIST*
D10*
%TO.C,JP903*%
X98025000Y13125000D03*
D11*
X96025000Y13125000D03*
%TD*%
D10*
%TO.C,JP703*%
X66275000Y13125000D03*
D11*
X64275000Y13125000D03*
%TD*%
D10*
%TO.C,JP301*%
X91550000Y53487500D03*
X89550000Y53487500D03*
D11*
X87550000Y53487500D03*
%TD*%
D12*
%TO.C,J701*%
X75044000Y7090000D03*
X71544000Y7090000D03*
X68044000Y7090000D03*
D13*
X64544000Y7090000D03*
%TD*%
D12*
%TO.C,J201*%
X48740000Y62716000D03*
X52240000Y62716000D03*
X55740000Y62716000D03*
D13*
X59240000Y62716000D03*
%TD*%
D10*
%TO.C,JP502*%
X96215000Y56742500D03*
D11*
X98215000Y56742500D03*
%TD*%
D10*
%TO.C,JP303*%
X89330000Y56807500D03*
D11*
X91330000Y56807500D03*
%TD*%
D14*
%TO.C,H103*%
X112500000Y2500000D03*
%TD*%
D12*
%TO.C,J901*%
X106992000Y7090000D03*
X103492000Y7090000D03*
X99992000Y7090000D03*
D13*
X96492000Y7090000D03*
%TD*%
D14*
%TO.C,H101*%
X2500000Y67500000D03*
%TD*%
D12*
%TO.C,J102*%
X17315000Y62385000D03*
X12235000Y62385000D03*
%TD*%
D10*
%TO.C,JP403*%
X73455000Y56807500D03*
D11*
X75455000Y56807500D03*
%TD*%
D10*
%TO.C,JP802*%
X91310000Y13125000D03*
D11*
X89310000Y13125000D03*
%TD*%
D12*
%TO.C,J301*%
X80434000Y62716000D03*
X83934000Y62716000D03*
X87434000Y62716000D03*
D13*
X90934000Y62716000D03*
%TD*%
D15*
%TO.C,JP101*%
X19540000Y37570000D03*
D16*
X17000000Y37570000D03*
%TD*%
D12*
%TO.C,J401*%
X64600000Y62716000D03*
X68100000Y62716000D03*
X71600000Y62716000D03*
D13*
X75100000Y62716000D03*
%TD*%
D14*
%TO.C,H102*%
X112500000Y67500000D03*
%TD*%
D10*
%TO.C,JP501*%
X107595000Y53422500D03*
X105595000Y53422500D03*
D11*
X103595000Y53422500D03*
%TD*%
D10*
%TO.C,JP803*%
X82150000Y13125000D03*
D11*
X80150000Y13125000D03*
%TD*%
D17*
%TO.C,C101*%
X12009900Y42015000D03*
D18*
X10009900Y42015000D03*
%TD*%
D10*
%TO.C,JP701*%
X64055000Y16445000D03*
X66055000Y16445000D03*
D11*
X68055000Y16445000D03*
%TD*%
D19*
%TO.C,ILI9341TFT101*%
X93515000Y33887000D03*
X90975000Y33887000D03*
X88435000Y33887000D03*
X85895000Y33887000D03*
X83355000Y33887000D03*
X80815000Y33887000D03*
X78275000Y33887000D03*
X78275000Y36427000D03*
X80815000Y36427000D03*
X83355000Y36427000D03*
X85895000Y36427000D03*
X88435000Y36427000D03*
X90975000Y36427000D03*
X93515000Y36427000D03*
%TD*%
D20*
%TO.C,MCU101*%
X31920000Y62875000D03*
X34460000Y62875000D03*
X38371600Y48635000D03*
X36371600Y48635000D03*
X34371600Y48635000D03*
X34371600Y50635000D03*
X36371600Y50635000D03*
D21*
X38371600Y50635000D03*
D17*
X28620800Y47145800D03*
X28620800Y49685800D03*
X28620800Y52225800D03*
X28620800Y54765800D03*
D18*
X28620800Y57305800D03*
D17*
X38270000Y17885000D03*
X35730000Y17885000D03*
X33190000Y17885000D03*
X30650000Y17885000D03*
X28110000Y17885000D03*
X38270000Y61065000D03*
X40810000Y63605000D03*
X40810000Y61065000D03*
X40810000Y58525000D03*
X40810000Y55985000D03*
X40810000Y53445000D03*
X40810000Y50905000D03*
X40810000Y48365000D03*
X40810000Y45825000D03*
X40810000Y43285000D03*
X40810000Y40745000D03*
X40810000Y38205000D03*
X40810000Y35665000D03*
X40810000Y33125000D03*
X40810000Y30585000D03*
X40810000Y28045000D03*
X40810000Y25505000D03*
X40810000Y22965000D03*
X40810000Y20425000D03*
X40810000Y17885000D03*
X40810000Y15345000D03*
X40810000Y12805000D03*
X40810000Y10265000D03*
X40810000Y7725000D03*
X40810000Y5185000D03*
X25570000Y5185000D03*
X25570000Y7725000D03*
X25570000Y10265000D03*
X25570000Y12805000D03*
X25570000Y15345000D03*
X25570000Y17885000D03*
X25570000Y20425000D03*
X25570000Y22965000D03*
X25570000Y25505000D03*
X25570000Y28045000D03*
X25570000Y30585000D03*
X25570000Y33125000D03*
X25570000Y35665000D03*
X25570000Y38205000D03*
X25570000Y40745000D03*
X25570000Y43285000D03*
X25570000Y45825000D03*
X25570000Y48365000D03*
X25570000Y50905000D03*
X25570000Y53445000D03*
X25570000Y55985000D03*
X25570000Y58525000D03*
X25570000Y61065000D03*
D18*
X25570000Y63605000D03*
%TD*%
D10*
%TO.C,JP202*%
X48590000Y56742500D03*
D11*
X50590000Y56742500D03*
%TD*%
D10*
%TO.C,JP401*%
X75675000Y53487500D03*
X73675000Y53487500D03*
D11*
X71675000Y53487500D03*
%TD*%
D10*
%TO.C,JP503*%
X105375000Y56742500D03*
D11*
X107375000Y56742500D03*
%TD*%
D10*
%TO.C,JP402*%
X64295000Y56807500D03*
D11*
X66295000Y56807500D03*
%TD*%
D10*
%TO.C,JP302*%
X80170000Y56807500D03*
D11*
X82170000Y56807500D03*
%TD*%
D10*
%TO.C,JP702*%
X75435000Y13125000D03*
D11*
X73435000Y13125000D03*
%TD*%
D12*
%TO.C,J601*%
X59169000Y7090000D03*
X55669000Y7090000D03*
X52169000Y7090000D03*
D13*
X48669000Y7090000D03*
%TD*%
D10*
%TO.C,JP902*%
X107185000Y13125000D03*
D11*
X105185000Y13125000D03*
%TD*%
D12*
%TO.C,J801*%
X90990000Y7090000D03*
X87490000Y7090000D03*
X83990000Y7090000D03*
D13*
X80490000Y7090000D03*
%TD*%
D10*
%TO.C,JP603*%
X50400000Y13125000D03*
D11*
X48400000Y13125000D03*
%TD*%
D22*
%TO.C,Teensy_Ethernet101*%
X22015000Y15320000D03*
X6265000Y15320000D03*
D23*
X20465000Y8890000D03*
X17925000Y7190000D03*
X10355000Y8890000D03*
X7815000Y7190000D03*
X18585000Y21160000D03*
X17315000Y18620000D03*
X16045000Y21160000D03*
X14775000Y18620000D03*
X13505000Y21160000D03*
X12235000Y18620000D03*
X10965000Y21160000D03*
D24*
X9695000Y18620000D03*
D25*
X19855000Y12270000D03*
X8425000Y12270000D03*
%TD*%
D12*
%TO.C,J501*%
X96266000Y62716000D03*
X99766000Y62716000D03*
X103266000Y62716000D03*
D13*
X106766000Y62716000D03*
%TD*%
D10*
%TO.C,JP602*%
X59560000Y13125000D03*
D11*
X57560000Y13125000D03*
%TD*%
D10*
%TO.C,JP901*%
X95805000Y16445000D03*
X97805000Y16445000D03*
D11*
X99805000Y16445000D03*
%TD*%
D10*
%TO.C,JP801*%
X79930000Y16445000D03*
X81930000Y16445000D03*
D11*
X83930000Y16445000D03*
%TD*%
D23*
%TO.C,U101*%
X18275000Y33280000D03*
X15735000Y33280000D03*
D26*
X13195000Y33280000D03*
%TD*%
D10*
%TO.C,JP201*%
X59970000Y53422500D03*
X57970000Y53422500D03*
D11*
X55970000Y53422500D03*
%TD*%
D14*
%TO.C,H104*%
X2500000Y2500000D03*
%TD*%
D17*
%TO.C,C102*%
X19319900Y45190000D03*
D18*
X17319900Y45190000D03*
%TD*%
D10*
%TO.C,JP203*%
X57750000Y56742500D03*
D11*
X59750000Y56742500D03*
%TD*%
D15*
%TO.C,J101*%
X5975000Y47320000D03*
X5975000Y44780000D03*
X5975000Y42240000D03*
D16*
X5975000Y39700000D03*
%TD*%
D10*
%TO.C,JP601*%
X48180000Y16445000D03*
X50180000Y16445000D03*
D11*
X52180000Y16445000D03*
%TD*%
M02*
